<?xml version="1.0" encoding="UTF-8" standalone="no"?>
<svg
   xmlns:dc="http://purl.org/dc/elements/1.1/"
   xmlns:cc="http://creativecommons.org/ns#"
   xmlns:rdf="http://www.w3.org/1999/02/22-rdf-syntax-ns#"
   xmlns:svg="http://www.w3.org/2000/svg"
   xmlns="http://www.w3.org/2000/svg"
   xmlns:sodipodi="http://sodipodi.sourceforge.net/DTD/sodipodi-0.dtd"
   xmlns:inkscape="http://www.inkscape.org/namespaces/inkscape"
   version="1.1"
   id="Your_Icon"
   x="0px"
   y="0px"
   width="435.91034"
   height="81.000237"
   viewBox="0 0 435.91034 81.000237"
   enable-background="new 0 0 100 100"
   xml:space="preserve"
   inkscape:version="0.48.4 r9939"
   sodipodi:docname="GoodThings_Logo_Side.svg"><metadata
     id="metadata11"><rdf:RDF><cc:Work
         rdf:about=""><dc:format>image/svg+xml</dc:format><dc:type
           rdf:resource="http://purl.org/dc/dcmitype/StillImage" /><dc:title></dc:title></cc:Work></rdf:RDF></metadata><defs
     id="defs9" /><sodipodi:namedview
     pagecolor="#ffffff"
     bordercolor="#666666"
     borderopacity="1"
     objecttolerance="10"
     gridtolerance="10"
     guidetolerance="10"
     inkscape:pageopacity="0"
     inkscape:pageshadow="2"
     inkscape:window-width="1855"
     inkscape:window-height="1056"
     id="namedview7"
     showgrid="false"
     fit-margin-top="0"
     fit-margin-left="0"
     fit-margin-right="0"
     fit-margin-bottom="0"
     inkscape:zoom="1.18"
     inkscape:cx="249.895"
     inkscape:cy="11.598975"
     inkscape:window-x="1431"
     inkscape:window-y="24"
     inkscape:window-maximized="1"
     inkscape:current-layer="Your_Icon" /><g
     id="g3"
     style="fill:#550000"
     transform="translate(-4.9996476,-9.4997652)"><path
       d="m 94.361,58.33 -43,-48 C 50.881,9.8 50.201,9.49 49.49,9.5 c -0.72,0 -1.4,0.31 -1.87,0.85 l -42,48 c -0.48,0.551 -0.69,1.271 -0.6,1.98 0.1,0.71 0.49,1.35 1.09,1.75 l 42,28 c 0.42,0.28 0.91,0.42 1.39,0.42 0.47,0 0.951,-0.13 1.361,-0.41 l 43,-28 c 0.619,-0.39 1.02,-1.04 1.119,-1.76 0.09,-0.73 -0.13,-1.45 -0.619,-2 z M 48.5,84.33 11.26,59.5 48.5,16.94 v 67.39 z m 2,0.04 V 16.86 L 88.691,59.5 50.5,84.37 z"
       id="path5"
       style="fill:#550000"
       inkscape:connector-curvature="0" /></g><text
     xml:space="preserve"
     style="font-size:52.40189362px;font-style:normal;font-variant:normal;font-weight:normal;font-stretch:normal;text-align:start;line-height:125%;letter-spacing:0px;word-spacing:0px;writing-mode:lr-tb;text-anchor:start;fill:#550000;fill-opacity:1;stroke:none;font-family:Nimbus Mono L;-inkscape-font-specification:Nimbus Mono L"
     x="95.659927"
     y="59.679695"
     id="text2988"
     sodipodi:linespacing="125%"><tspan
       sodipodi:role="line"
       id="tspan2990"
       x="95.659927"
       y="59.679695">Good Things</tspan></text>
</svg>